<svg xmlns="http://www.w3.org/2000/svg" width="512" height="512" viewBox="0 0 512 512" role="img" aria-label="CRM Companion icon">
  <rect width="512" height="512" rx="120" fill="#0a0a0a"/>
  <path d="M146 182c0-19.9 16.1-36 36-36h148c19.9 0 36 16.1 36 36v148c0 19.9-16.1 36-36 36H182c-19.9 0-36-16.1-36-36V182z" fill="#ffffff" opacity="0.12"/>
  <path d="M194 210h124c8.8 0 16 7.2 16 16v60c0 8.8-7.2 16-16 16H194c-8.8 0-16-7.2-16-16v-60c0-8.8 7.2-16 16-16z" fill="#ffffff"/>
  <path d="M210 326h92a12 12 0 0 1 0 24h-92a12 12 0 0 1 0-24z" fill="#ffffff" opacity="0.85"/>
  <path d="M210 162h92a12 12 0 0 1 0 24h-92a12 12 0 0 1 0-24z" fill="#ffffff" opacity="0.6"/>
</svg>

